<svg width="36" height="23" viewBox="0 0 36 23" fill="none" xmlns="http://www.w3.org/2000/svg">
<path fill-rule="evenodd" clip-rule="evenodd" d="M24.1559 7.64041C23.9616 7.9025 23.673 8.30212 23.2523 8.90407C22.619 9.81024 21.8533 10.6417 21.2212 11.1833V11.1837C20.303 11.8732 19.1625 12.2818 17.9259 12.2818C16.6893 12.2818 15.5487 11.8732 14.6305 11.1837V11.1833C13.9984 10.6417 13.2327 9.81024 12.5995 8.90407C12.1788 8.30212 11.8901 7.90256 11.6959 7.64041C9.90306 5.1305 6.96547 3.49414 3.64606 3.49414V5.69105C6.25928 5.69105 8.57261 6.99436 9.96215 8.9864C10.079 9.14328 10.2224 9.35287 10.3855 9.59124C10.6698 10.0066 11.0138 10.5094 11.381 10.9728C11.9346 11.6716 12.4408 12.178 12.4408 12.178L12.4413 12.1778C13.8365 13.5976 15.7783 14.4787 17.9259 14.4787C20.0734 14.4787 22.0153 13.5976 23.4104 12.1778L23.411 12.178C23.411 12.178 23.9171 11.6716 24.4708 10.9728C24.8379 10.5095 25.1818 10.0068 25.4661 9.59151L25.4661 9.59144L25.4662 9.59134L25.4662 9.59124L25.4662 9.59123L25.4664 9.59098L25.4665 9.59081C25.6295 9.35263 25.7729 9.14319 25.8896 8.9864C27.2791 6.99436 29.5925 5.69105 32.2057 5.69105V3.49414C28.8863 3.49414 25.9487 5.1305 24.1559 7.64041ZM26.2522 12.1231C26.7604 11.3881 27.4279 10.4227 28.1532 9.67381C29.1573 8.5764 30.6009 7.88778 32.2058 7.88773V10.0846C31.2298 10.0846 30.3526 10.5089 29.7496 11.1831C29.7496 11.1831 29.3407 11.6438 28.9928 12.1777C28.6449 12.7117 27.3955 14.4649 26.5611 15.2409H26.5611C24.3678 17.4816 21.3092 18.8722 17.9259 18.8722C14.5426 18.8722 11.484 17.4816 9.29067 15.2409H9.29061C8.45628 14.465 7.20679 12.7117 6.85897 12.1777C6.51114 11.6438 6.10214 11.1831 6.10214 11.1831C5.49909 10.5089 4.62197 10.0846 3.646 10.0846V7.88773C5.25094 7.88773 6.69453 8.5764 7.69868 9.67381C8.42406 10.4227 9.0917 11.3884 9.59994 12.1235C9.68571 12.2475 9.76694 12.365 9.84314 12.4738C10.2233 13.0164 10.557 13.38 10.557 13.38C12.3672 15.4025 14.998 16.6753 17.9259 16.6753C20.8539 16.6753 23.4847 15.4025 25.2949 13.38C25.2949 13.38 25.6286 13.0164 26.0087 12.4738C26.0847 12.3653 26.1658 12.2481 26.2513 12.1244L26.2517 12.1238L26.2522 12.1231ZM31.7298 12.3911C31.7347 12.3886 31.7395 12.3856 31.7444 12.3831L31.7446 12.3841C31.885 12.319 32.0408 12.2816 32.2058 12.2816V14.4785H29.961C30.0377 14.3544 30.2516 14.0449 30.5051 13.7041C30.5592 13.6314 30.6139 13.5549 30.6698 13.4766L30.67 13.4765C30.921 13.1254 31.198 12.738 31.5628 12.4907C31.6152 12.4527 31.671 12.4195 31.7298 12.3911ZM4.12207 12.3911C4.18083 12.4195 4.23669 12.4527 4.28909 12.4906C4.65372 12.7379 4.93067 13.1251 5.1817 13.4761L5.18171 13.4761C5.23782 13.5545 5.29263 13.6312 5.34684 13.704C5.60031 14.0448 5.81418 14.3543 5.89096 14.4785H3.64611V12.2815C3.81104 12.2815 3.96691 12.3189 4.10729 12.384L4.10746 12.3831C4.11011 12.3844 4.11268 12.3859 4.11523 12.3873L4.12207 12.3911ZM7.62221 16.6755H3.64603V18.8724H10.3137C9.32876 18.2505 8.42496 17.5119 7.62221 16.6755ZM32.2058 18.8724H25.5381C26.5231 18.2505 27.4269 17.5119 28.2296 16.6755H32.2058V18.8724Z" fill="#00DAE8"/>
</svg>
